<mxfile host="app.diagrams.net" agent="Mozilla/5.0 (Windows NT 10.0; Win64; x64) AppleWebKit/537.36 (KHTML, like Gecko) Chrome/131.0.0.0 Safari/537.36" version="25.0.3">
  <diagram name="Página-1" id="Ahi6V4Lr8t8cAiLEJLWC">
    <mxGraphModel dx="2514" dy="908" grid="1" gridSize="10" guides="1" tooltips="1" connect="1" arrows="1" fold="1" page="1" pageScale="1" pageWidth="827" pageHeight="1169" math="0" shadow="0">
      <root>
        <mxCell id="0" />
        <mxCell id="1" parent="0" />
        <mxCell id="Cib58k6UqP0Wak7wSc-0-1" value="Frontend - PIFO" style="rounded=1;whiteSpace=wrap;html=1;" vertex="1" parent="1">
          <mxGeometry x="210" y="384" width="100" height="42" as="geometry" />
        </mxCell>
        <mxCell id="Cib58k6UqP0Wak7wSc-0-2" style="edgeStyle=none;curved=1;rounded=0;orthogonalLoop=1;jettySize=auto;html=1;fontSize=12;startSize=8;endSize=8;dashed=1;dashPattern=1 2;" edge="1" parent="1" source="Cib58k6UqP0Wak7wSc-0-4">
          <mxGeometry relative="1" as="geometry">
            <mxPoint x="600" y="224" as="targetPoint" />
          </mxGeometry>
        </mxCell>
        <mxCell id="Cib58k6UqP0Wak7wSc-0-3" value="HTTP" style="edgeLabel;html=1;align=center;verticalAlign=middle;resizable=0;points=[];fontSize=12;" vertex="1" connectable="0" parent="Cib58k6UqP0Wak7wSc-0-2">
          <mxGeometry x="-0.0721" relative="1" as="geometry">
            <mxPoint as="offset" />
          </mxGeometry>
        </mxCell>
        <mxCell id="Cib58k6UqP0Wak7wSc-0-4" value="Frontend - SYM" style="rounded=1;whiteSpace=wrap;html=1;" vertex="1" parent="1">
          <mxGeometry x="210" y="203" width="100" height="42" as="geometry" />
        </mxCell>
        <mxCell id="Cib58k6UqP0Wak7wSc-0-5" value="Usuarios" style="image;aspect=fixed;html=1;points=[];align=center;fontSize=12;image=img/lib/azure2/intune/Devices.svg;" vertex="1" parent="1">
          <mxGeometry x="90" y="375" width="68" height="60" as="geometry" />
        </mxCell>
        <mxCell id="Cib58k6UqP0Wak7wSc-0-6" style="edgeStyle=none;curved=1;rounded=0;orthogonalLoop=1;jettySize=auto;html=1;fontSize=12;startSize=8;endSize=8;dashed=1;dashPattern=1 2;entryX=0;entryY=0.5;entryDx=0;entryDy=0;" edge="1" parent="1">
          <mxGeometry relative="1" as="geometry">
            <mxPoint x="148" y="404.9988120271348" as="sourcePoint" />
            <mxPoint x="210" y="405.20000000000005" as="targetPoint" />
          </mxGeometry>
        </mxCell>
        <mxCell id="Cib58k6UqP0Wak7wSc-0-7" style="rounded=0;orthogonalLoop=1;jettySize=auto;html=1;fontSize=12;startSize=8;endSize=8;dashed=1;dashPattern=1 1;startArrow=classic;startFill=1;edgeStyle=orthogonalEdgeStyle;exitX=1.03;exitY=0.741;exitDx=0;exitDy=0;exitPerimeter=0;" edge="1" parent="1" target="Cib58k6UqP0Wak7wSc-0-33">
          <mxGeometry relative="1" as="geometry">
            <mxPoint x="313" y="419.12199999999984" as="sourcePoint" />
            <mxPoint x="450" y="466" as="targetPoint" />
            <Array as="points">
              <mxPoint x="380" y="419" />
              <mxPoint x="380" y="495" />
            </Array>
          </mxGeometry>
        </mxCell>
        <mxCell id="Cib58k6UqP0Wak7wSc-0-8" value="autenticar/&lt;br&gt;generar token" style="edgeLabel;html=1;align=center;verticalAlign=middle;resizable=0;points=[];fontSize=12;" vertex="1" connectable="0" parent="Cib58k6UqP0Wak7wSc-0-7">
          <mxGeometry x="0.0681" y="-1" relative="1" as="geometry">
            <mxPoint x="1" y="-5" as="offset" />
          </mxGeometry>
        </mxCell>
        <mxCell id="Cib58k6UqP0Wak7wSc-0-9" style="edgeStyle=orthogonalEdgeStyle;rounded=0;orthogonalLoop=1;jettySize=auto;html=1;entryX=0;entryY=0.5;entryDx=0;entryDy=0;fontSize=12;startSize=8;endSize=8;dashed=1;dashPattern=1 1;" edge="1" parent="1" source="Cib58k6UqP0Wak7wSc-0-10" target="Cib58k6UqP0Wak7wSc-0-4">
          <mxGeometry relative="1" as="geometry" />
        </mxCell>
        <mxCell id="Cib58k6UqP0Wak7wSc-0-10" value="Usuarios" style="image;aspect=fixed;html=1;points=[];align=center;fontSize=12;image=img/lib/azure2/intune/Devices.svg;" vertex="1" parent="1">
          <mxGeometry x="90" y="194" width="68" height="60" as="geometry" />
        </mxCell>
        <mxCell id="Cib58k6UqP0Wak7wSc-0-11" style="edgeStyle=orthogonalEdgeStyle;rounded=0;orthogonalLoop=1;jettySize=auto;html=1;fontSize=12;startSize=8;endSize=8;dashed=1;dashPattern=1 1;" edge="1" parent="1">
          <mxGeometry relative="1" as="geometry">
            <mxPoint x="600" y="445" as="targetPoint" />
            <mxPoint x="310" y="409" as="sourcePoint" />
            <Array as="points">
              <mxPoint x="540" y="409" />
              <mxPoint x="540" y="445" />
              <mxPoint x="600" y="445" />
            </Array>
          </mxGeometry>
        </mxCell>
        <mxCell id="Cib58k6UqP0Wak7wSc-0-12" value="HTTP" style="edgeLabel;html=1;align=center;verticalAlign=middle;resizable=0;points=[];fontSize=12;" vertex="1" connectable="0" parent="Cib58k6UqP0Wak7wSc-0-11">
          <mxGeometry x="-0.0182" y="-1" relative="1" as="geometry">
            <mxPoint as="offset" />
          </mxGeometry>
        </mxCell>
        <mxCell id="Cib58k6UqP0Wak7wSc-0-13" value="Orquestador" style="swimlane;" vertex="1" parent="1">
          <mxGeometry x="420" y="65" width="420" height="540" as="geometry" />
        </mxCell>
        <mxCell id="Cib58k6UqP0Wak7wSc-0-14" style="edgeStyle=orthogonalEdgeStyle;rounded=0;orthogonalLoop=1;jettySize=auto;html=1;entryX=0;entryY=0.5;entryDx=0;entryDy=0;fontSize=12;startSize=8;endSize=8;startArrow=classic;startFill=1;dashed=1;dashPattern=1 2;" edge="1" parent="Cib58k6UqP0Wak7wSc-0-13" source="Cib58k6UqP0Wak7wSc-0-15" target="Cib58k6UqP0Wak7wSc-0-22">
          <mxGeometry relative="1" as="geometry" />
        </mxCell>
        <mxCell id="Cib58k6UqP0Wak7wSc-0-15" value="Keycloack - user" style="image;aspect=fixed;html=1;points=[];align=center;fontSize=12;image=img/lib/azure2/other/Azure_Edge_Hardware_Center.svg;" vertex="1" parent="Cib58k6UqP0Wak7wSc-0-13">
          <mxGeometry x="50" y="40" width="68" height="68" as="geometry" />
        </mxCell>
        <mxCell id="Cib58k6UqP0Wak7wSc-0-16" style="edgeStyle=orthogonalEdgeStyle;rounded=0;orthogonalLoop=1;jettySize=auto;html=1;fontSize=12;startSize=8;endSize=8;startArrow=classic;startFill=1;dashed=1;dashPattern=1 1;entryX=0;entryY=0.5;entryDx=0;entryDy=0;" edge="1" parent="Cib58k6UqP0Wak7wSc-0-13" target="Cib58k6UqP0Wak7wSc-0-28">
          <mxGeometry relative="1" as="geometry">
            <mxPoint x="100" y="270" as="sourcePoint" />
            <mxPoint x="212" y="381" as="targetPoint" />
            <Array as="points">
              <mxPoint x="152" y="270" />
              <mxPoint x="152" y="360" />
              <mxPoint x="190" y="360" />
              <mxPoint x="190" y="381" />
            </Array>
          </mxGeometry>
        </mxCell>
        <mxCell id="Cib58k6UqP0Wak7wSc-0-17" value="autenticar/&lt;br&gt;generar token" style="edgeLabel;html=1;align=center;verticalAlign=middle;resizable=0;points=[];fontSize=12;" vertex="1" connectable="0" parent="Cib58k6UqP0Wak7wSc-0-16">
          <mxGeometry x="-0.1518" relative="1" as="geometry">
            <mxPoint x="-12" y="3" as="offset" />
          </mxGeometry>
        </mxCell>
        <mxCell id="Cib58k6UqP0Wak7wSc-0-18" value="Keycloack - system" style="image;aspect=fixed;html=1;points=[];align=center;fontSize=12;image=img/lib/azure2/other/Azure_Edge_Hardware_Center.svg;" vertex="1" parent="Cib58k6UqP0Wak7wSc-0-13">
          <mxGeometry x="30" y="210" width="68" height="68" as="geometry" />
        </mxCell>
        <mxCell id="Cib58k6UqP0Wak7wSc-0-19" style="edgeStyle=none;curved=1;rounded=0;orthogonalLoop=1;jettySize=auto;html=1;fontSize=12;startSize=8;endSize=8;startArrow=classic;startFill=1;dashed=1;dashPattern=1 2;entryX=0.35;entryY=0;entryDx=0;entryDy=0;entryPerimeter=0;" edge="1" parent="Cib58k6UqP0Wak7wSc-0-13" target="Cib58k6UqP0Wak7wSc-0-26">
          <mxGeometry relative="1" as="geometry">
            <mxPoint x="250" y="230" as="sourcePoint" />
            <mxPoint x="250" y="280" as="targetPoint" />
          </mxGeometry>
        </mxCell>
        <mxCell id="Cib58k6UqP0Wak7wSc-0-20" value="Backend" style="swimlane;" vertex="1" parent="Cib58k6UqP0Wak7wSc-0-13">
          <mxGeometry x="180" y="50" width="200" height="180" as="geometry">
            <mxRectangle x="585" y="260" width="90" height="30" as="alternateBounds" />
          </mxGeometry>
        </mxCell>
        <mxCell id="Cib58k6UqP0Wak7wSc-0-21" value="Servicio de Autenticación" style="swimlane;" vertex="1" parent="Cib58k6UqP0Wak7wSc-0-20">
          <mxGeometry x="15" y="40" width="170" height="130" as="geometry">
            <mxRectangle x="15" y="85" width="170" height="30" as="alternateBounds" />
          </mxGeometry>
        </mxCell>
        <mxCell id="Cib58k6UqP0Wak7wSc-0-22" value="&lt;span style=&quot;font-size: 10px;&quot;&gt;Componente: Autenticar token y usuario (user)&lt;/span&gt;" style="rounded=1;whiteSpace=wrap;html=1;" vertex="1" parent="Cib58k6UqP0Wak7wSc-0-21">
          <mxGeometry x="25" y="30.5" width="120" height="39.5" as="geometry" />
        </mxCell>
        <mxCell id="Cib58k6UqP0Wak7wSc-0-23" value="&lt;span style=&quot;font-size: 10px;&quot;&gt;Componente: Autenticar token y usuario (system)&lt;/span&gt;" style="rounded=1;whiteSpace=wrap;html=1;" vertex="1" parent="Cib58k6UqP0Wak7wSc-0-21">
          <mxGeometry x="25" y="80" width="120" height="40" as="geometry" />
        </mxCell>
        <mxCell id="Cib58k6UqP0Wak7wSc-0-24" style="edgeStyle=orthogonalEdgeStyle;rounded=0;orthogonalLoop=1;jettySize=auto;html=1;fontSize=12;startSize=8;endSize=8;dashed=1;dashPattern=1 2;startArrow=classic;startFill=1;" edge="1" parent="Cib58k6UqP0Wak7wSc-0-13">
          <mxGeometry relative="1" as="geometry">
            <mxPoint x="36" y="70" as="targetPoint" />
            <Array as="points">
              <mxPoint x="-60" y="150" />
              <mxPoint x="-60" y="70" />
              <mxPoint x="36" y="70" />
            </Array>
            <mxPoint x="-110" y="150" as="sourcePoint" />
          </mxGeometry>
        </mxCell>
        <mxCell id="Cib58k6UqP0Wak7wSc-0-25" value="autenticar/&lt;br&gt;generar token" style="edgeLabel;html=1;align=center;verticalAlign=middle;resizable=0;points=[];fontSize=12;" vertex="1" connectable="0" parent="Cib58k6UqP0Wak7wSc-0-24">
          <mxGeometry x="0.0238" y="2" relative="1" as="geometry">
            <mxPoint y="17" as="offset" />
          </mxGeometry>
        </mxCell>
        <mxCell id="Cib58k6UqP0Wak7wSc-0-26" value="Backend" style="swimlane;" vertex="1" parent="Cib58k6UqP0Wak7wSc-0-13">
          <mxGeometry x="180" y="290" width="200" height="180" as="geometry">
            <mxRectangle x="585" y="260" width="90" height="30" as="alternateBounds" />
          </mxGeometry>
        </mxCell>
        <mxCell id="Cib58k6UqP0Wak7wSc-0-27" value="Servicio de Autenticación" style="swimlane;" vertex="1" parent="Cib58k6UqP0Wak7wSc-0-26">
          <mxGeometry x="15" y="40" width="170" height="130" as="geometry">
            <mxRectangle x="15" y="85" width="170" height="30" as="alternateBounds" />
          </mxGeometry>
        </mxCell>
        <mxCell id="Cib58k6UqP0Wak7wSc-0-28" value="&lt;font style=&quot;font-size: 10px;&quot;&gt;Componente: Autenticar token y usuario (system)&lt;/font&gt;" style="rounded=1;whiteSpace=wrap;html=1;" vertex="1" parent="Cib58k6UqP0Wak7wSc-0-27">
          <mxGeometry x="25" y="31" width="120" height="40" as="geometry" />
        </mxCell>
        <mxCell id="Cib58k6UqP0Wak7wSc-0-29" value="&lt;font style=&quot;font-size: 10px;&quot;&gt;Componente: Autenticar token y usuario (user)&lt;/font&gt;" style="rounded=1;whiteSpace=wrap;html=1;" vertex="1" parent="Cib58k6UqP0Wak7wSc-0-27">
          <mxGeometry x="25" y="80" width="120" height="39.5" as="geometry" />
        </mxCell>
        <mxCell id="Cib58k6UqP0Wak7wSc-0-30" style="edgeStyle=none;curved=1;rounded=0;orthogonalLoop=1;jettySize=auto;html=1;fontSize=12;startSize=8;endSize=8;startArrow=classic;startFill=1;dashed=1;dashPattern=1 2;" edge="1" parent="Cib58k6UqP0Wak7wSc-0-13">
          <mxGeometry relative="1" as="geometry">
            <mxPoint x="300" y="230" as="sourcePoint" />
            <mxPoint x="300" y="290" as="targetPoint" />
          </mxGeometry>
        </mxCell>
        <mxCell id="Cib58k6UqP0Wak7wSc-0-31" style="edgeStyle=orthogonalEdgeStyle;rounded=0;orthogonalLoop=1;jettySize=auto;html=1;entryX=0;entryY=0.5;entryDx=0;entryDy=0;fontSize=12;startSize=8;endSize=8;dashed=1;dashPattern=1 2;startArrow=classic;startFill=1;" edge="1" parent="Cib58k6UqP0Wak7wSc-0-13" source="Cib58k6UqP0Wak7wSc-0-33" target="Cib58k6UqP0Wak7wSc-0-29">
          <mxGeometry relative="1" as="geometry">
            <Array as="points">
              <mxPoint x="140" y="430" />
              <mxPoint x="140" y="430" />
            </Array>
          </mxGeometry>
        </mxCell>
        <mxCell id="Cib58k6UqP0Wak7wSc-0-32" value="validar" style="edgeLabel;html=1;align=center;verticalAlign=middle;resizable=0;points=[];fontSize=12;" vertex="1" connectable="0" parent="Cib58k6UqP0Wak7wSc-0-31">
          <mxGeometry x="-0.0894" y="-1" relative="1" as="geometry">
            <mxPoint x="-4" y="-1" as="offset" />
          </mxGeometry>
        </mxCell>
        <mxCell id="Cib58k6UqP0Wak7wSc-0-33" value="Keycloack - user" style="image;aspect=fixed;html=1;points=[];align=center;fontSize=12;image=img/lib/azure2/other/Azure_Edge_Hardware_Center.svg;" vertex="1" parent="Cib58k6UqP0Wak7wSc-0-13">
          <mxGeometry x="50" y="398" width="68" height="68" as="geometry" />
        </mxCell>
        <mxCell id="Cib58k6UqP0Wak7wSc-0-34" value="2" style="ellipse;whiteSpace=wrap;html=1;aspect=fixed;rotation=0;gradientColor=#223548;strokeColor=none;gradientDirection=east;fillColor=#5b738b;rounded=0;pointerEvents=0;fontFamily=Helvetica;fontSize=16;fontColor=#FFFFFF;spacingTop=4;spacingBottom=4;spacingLeft=4;spacingRight=4;points=[];fontStyle=1" vertex="1" parent="Cib58k6UqP0Wak7wSc-0-13">
          <mxGeometry y="308" width="30" height="30" as="geometry" />
        </mxCell>
        <mxCell id="Cib58k6UqP0Wak7wSc-0-35" value="3" style="ellipse;whiteSpace=wrap;html=1;aspect=fixed;rotation=0;gradientColor=#223548;strokeColor=none;gradientDirection=east;fillColor=#5b738b;rounded=0;pointerEvents=0;fontFamily=Helvetica;fontSize=16;fontColor=#FFFFFF;spacingTop=4;spacingBottom=4;spacingLeft=4;spacingRight=4;points=[];fontStyle=1" vertex="1" parent="Cib58k6UqP0Wak7wSc-0-13">
          <mxGeometry x="140" y="440" width="30" height="30" as="geometry" />
        </mxCell>
        <mxCell id="Cib58k6UqP0Wak7wSc-0-36" value="4" style="ellipse;whiteSpace=wrap;html=1;aspect=fixed;rotation=0;gradientColor=#223548;strokeColor=none;gradientDirection=east;fillColor=#5b738b;rounded=0;pointerEvents=0;fontFamily=Helvetica;fontSize=16;fontColor=#FFFFFF;spacingTop=4;spacingBottom=4;spacingLeft=4;spacingRight=4;points=[];fontStyle=1" vertex="1" parent="Cib58k6UqP0Wak7wSc-0-13">
          <mxGeometry x="130" y="278" width="30" height="30" as="geometry" />
        </mxCell>
        <mxCell id="Cib58k6UqP0Wak7wSc-0-37" value="5" style="ellipse;whiteSpace=wrap;html=1;aspect=fixed;rotation=0;gradientColor=#223548;strokeColor=none;gradientDirection=east;fillColor=#5b738b;rounded=0;pointerEvents=0;fontFamily=Helvetica;fontSize=16;fontColor=#FFFFFF;spacingTop=4;spacingBottom=4;spacingLeft=4;spacingRight=4;points=[];fontStyle=1" vertex="1" parent="Cib58k6UqP0Wak7wSc-0-13">
          <mxGeometry x="210" y="248" width="30" height="30" as="geometry" />
        </mxCell>
        <mxCell id="Cib58k6UqP0Wak7wSc-0-38" value="Frontend - PIFO" style="rounded=1;whiteSpace=wrap;html=1;" vertex="1" parent="1">
          <mxGeometry x="-660" y="419" width="100" height="42" as="geometry" />
        </mxCell>
        <mxCell id="Cib58k6UqP0Wak7wSc-0-39" style="edgeStyle=none;curved=1;rounded=0;orthogonalLoop=1;jettySize=auto;html=1;fontSize=12;startSize=8;endSize=8;dashed=1;dashPattern=1 2;startArrow=none;startFill=0;" edge="1" parent="1" source="Cib58k6UqP0Wak7wSc-0-41">
          <mxGeometry relative="1" as="geometry">
            <mxPoint x="-270" y="189" as="targetPoint" />
          </mxGeometry>
        </mxCell>
        <mxCell id="Cib58k6UqP0Wak7wSc-0-40" value="HTTP" style="edgeLabel;html=1;align=center;verticalAlign=middle;resizable=0;points=[];fontSize=12;" vertex="1" connectable="0" parent="Cib58k6UqP0Wak7wSc-0-39">
          <mxGeometry x="-0.0721" relative="1" as="geometry">
            <mxPoint as="offset" />
          </mxGeometry>
        </mxCell>
        <mxCell id="Cib58k6UqP0Wak7wSc-0-41" value="Frontend - SYM" style="rounded=1;whiteSpace=wrap;html=1;" vertex="1" parent="1">
          <mxGeometry x="-660" y="168" width="100" height="42" as="geometry" />
        </mxCell>
        <mxCell id="Cib58k6UqP0Wak7wSc-0-42" value="Usuarios" style="image;aspect=fixed;html=1;points=[];align=center;fontSize=12;image=img/lib/azure2/intune/Devices.svg;" vertex="1" parent="1">
          <mxGeometry x="-780" y="410" width="68" height="60" as="geometry" />
        </mxCell>
        <mxCell id="Cib58k6UqP0Wak7wSc-0-43" style="edgeStyle=none;curved=1;rounded=0;orthogonalLoop=1;jettySize=auto;html=1;fontSize=12;startSize=8;endSize=8;dashed=1;dashPattern=1 2;entryX=0;entryY=0.5;entryDx=0;entryDy=0;" edge="1" parent="1">
          <mxGeometry relative="1" as="geometry">
            <mxPoint x="-722" y="439.9988120271348" as="sourcePoint" />
            <mxPoint x="-660" y="440.20000000000005" as="targetPoint" />
          </mxGeometry>
        </mxCell>
        <mxCell id="Cib58k6UqP0Wak7wSc-0-44" style="edgeStyle=orthogonalEdgeStyle;rounded=0;orthogonalLoop=1;jettySize=auto;html=1;entryX=0;entryY=0.5;entryDx=0;entryDy=0;fontSize=12;startSize=8;endSize=8;dashed=1;dashPattern=1 1;" edge="1" parent="1" source="Cib58k6UqP0Wak7wSc-0-45" target="Cib58k6UqP0Wak7wSc-0-41">
          <mxGeometry relative="1" as="geometry" />
        </mxCell>
        <mxCell id="Cib58k6UqP0Wak7wSc-0-45" value="Usuarios" style="image;aspect=fixed;html=1;points=[];align=center;fontSize=12;image=img/lib/azure2/intune/Devices.svg;" vertex="1" parent="1">
          <mxGeometry x="-780" y="159" width="68" height="60" as="geometry" />
        </mxCell>
        <mxCell id="Cib58k6UqP0Wak7wSc-0-46" value="&#xa;Orquestador&#xa;" style="swimlane;" vertex="1" parent="1">
          <mxGeometry x="-450" y="30" width="420" height="560" as="geometry" />
        </mxCell>
        <mxCell id="Cib58k6UqP0Wak7wSc-0-47" style="edgeStyle=orthogonalEdgeStyle;rounded=0;orthogonalLoop=1;jettySize=auto;html=1;entryX=0;entryY=0.5;entryDx=0;entryDy=0;fontSize=12;startSize=8;endSize=8;startArrow=classic;startFill=1;dashed=1;dashPattern=1 2;" edge="1" parent="Cib58k6UqP0Wak7wSc-0-46" source="Cib58k6UqP0Wak7wSc-0-49" target="Cib58k6UqP0Wak7wSc-0-52">
          <mxGeometry relative="1" as="geometry">
            <Array as="points">
              <mxPoint x="160" y="74" />
              <mxPoint x="160" y="140" />
            </Array>
          </mxGeometry>
        </mxCell>
        <mxCell id="Cib58k6UqP0Wak7wSc-0-48" value="validar" style="edgeLabel;html=1;align=center;verticalAlign=middle;resizable=0;points=[];fontSize=12;" vertex="1" connectable="0" parent="Cib58k6UqP0Wak7wSc-0-47">
          <mxGeometry x="-0.0114" y="-1" relative="1" as="geometry">
            <mxPoint as="offset" />
          </mxGeometry>
        </mxCell>
        <mxCell id="Cib58k6UqP0Wak7wSc-0-49" value="Keycloack - user" style="image;aspect=fixed;html=1;points=[];align=center;fontSize=12;image=img/lib/azure2/other/Azure_Edge_Hardware_Center.svg;" vertex="1" parent="Cib58k6UqP0Wak7wSc-0-46">
          <mxGeometry x="37" y="40" width="68" height="68" as="geometry" />
        </mxCell>
        <mxCell id="Cib58k6UqP0Wak7wSc-0-50" value="Backend" style="swimlane;" vertex="1" parent="Cib58k6UqP0Wak7wSc-0-46">
          <mxGeometry x="180" y="50" width="200" height="180" as="geometry">
            <mxRectangle x="585" y="260" width="90" height="30" as="alternateBounds" />
          </mxGeometry>
        </mxCell>
        <mxCell id="Cib58k6UqP0Wak7wSc-0-51" value="Servicio de Autenticación" style="swimlane;" vertex="1" parent="Cib58k6UqP0Wak7wSc-0-50">
          <mxGeometry x="15" y="40" width="170" height="130" as="geometry">
            <mxRectangle x="15" y="85" width="170" height="30" as="alternateBounds" />
          </mxGeometry>
        </mxCell>
        <mxCell id="Cib58k6UqP0Wak7wSc-0-52" value="&lt;span style=&quot;font-size: 10px;&quot;&gt;Componente: Autenticar token y usuario (user)&lt;/span&gt;" style="rounded=1;whiteSpace=wrap;html=1;" vertex="1" parent="Cib58k6UqP0Wak7wSc-0-51">
          <mxGeometry x="25" y="30.5" width="120" height="39.5" as="geometry" />
        </mxCell>
        <mxCell id="Cib58k6UqP0Wak7wSc-0-53" value="&lt;font style=&quot;font-size: 10px;&quot;&gt;Componente: Autenticar&amp;nbsp;&lt;br&gt;&lt;/font&gt;&lt;span style=&quot;font-size: 10px;&quot;&gt;Keycloack -system&lt;/span&gt;" style="rounded=1;whiteSpace=wrap;html=1;" vertex="1" parent="Cib58k6UqP0Wak7wSc-0-51">
          <mxGeometry x="25" y="80" width="120" height="40" as="geometry" />
        </mxCell>
        <mxCell id="Cib58k6UqP0Wak7wSc-0-54" style="edgeStyle=orthogonalEdgeStyle;rounded=0;orthogonalLoop=1;jettySize=auto;html=1;fontSize=12;startSize=8;endSize=8;dashed=1;dashPattern=1 2;startArrow=classic;startFill=1;" edge="1" parent="Cib58k6UqP0Wak7wSc-0-46">
          <mxGeometry relative="1" as="geometry">
            <mxPoint x="36" y="70" as="targetPoint" />
            <Array as="points">
              <mxPoint x="-60" y="150" />
              <mxPoint x="-60" y="70" />
              <mxPoint x="36" y="70" />
            </Array>
            <mxPoint x="-110" y="150" as="sourcePoint" />
          </mxGeometry>
        </mxCell>
        <mxCell id="Cib58k6UqP0Wak7wSc-0-55" value="autenticar/&lt;br&gt;generar token" style="edgeLabel;html=1;align=center;verticalAlign=middle;resizable=0;points=[];fontSize=12;" vertex="1" connectable="0" parent="Cib58k6UqP0Wak7wSc-0-54">
          <mxGeometry x="0.0238" y="2" relative="1" as="geometry">
            <mxPoint y="17" as="offset" />
          </mxGeometry>
        </mxCell>
        <mxCell id="Cib58k6UqP0Wak7wSc-0-56" value="Backend" style="swimlane;" vertex="1" parent="Cib58k6UqP0Wak7wSc-0-46">
          <mxGeometry x="190" y="310" width="200" height="180" as="geometry">
            <mxRectangle x="585" y="260" width="90" height="30" as="alternateBounds" />
          </mxGeometry>
        </mxCell>
        <mxCell id="Cib58k6UqP0Wak7wSc-0-57" value="Servicio de Autenticación" style="swimlane;" vertex="1" parent="Cib58k6UqP0Wak7wSc-0-56">
          <mxGeometry x="15" y="40" width="170" height="130" as="geometry">
            <mxRectangle x="15" y="85" width="170" height="30" as="alternateBounds" />
          </mxGeometry>
        </mxCell>
        <mxCell id="Cib58k6UqP0Wak7wSc-0-58" value="&lt;span style=&quot;font-size: 10px;&quot;&gt;Componente: Autenticar token y usuario (system)&lt;/span&gt;" style="rounded=1;whiteSpace=wrap;html=1;" vertex="1" parent="Cib58k6UqP0Wak7wSc-0-57">
          <mxGeometry x="25" y="30" width="120" height="40" as="geometry" />
        </mxCell>
        <mxCell id="Cib58k6UqP0Wak7wSc-0-59" value="&lt;span style=&quot;font-size: 10px;&quot;&gt;Componente: Autenticar token y usuario (user)&lt;/span&gt;" style="rounded=1;whiteSpace=wrap;html=1;" vertex="1" parent="Cib58k6UqP0Wak7wSc-0-57">
          <mxGeometry x="25" y="81" width="120" height="39.5" as="geometry" />
        </mxCell>
        <mxCell id="Cib58k6UqP0Wak7wSc-0-60" style="edgeStyle=none;curved=1;rounded=0;orthogonalLoop=1;jettySize=auto;html=1;fontSize=12;startSize=8;endSize=8;dashed=1;dashPattern=1 2;startArrow=block;startFill=1;" edge="1" parent="Cib58k6UqP0Wak7wSc-0-46">
          <mxGeometry relative="1" as="geometry">
            <mxPoint x="180" y="419" as="targetPoint" />
            <mxPoint x="-110" y="419" as="sourcePoint" />
          </mxGeometry>
        </mxCell>
        <mxCell id="Cib58k6UqP0Wak7wSc-0-61" value="HTTP" style="edgeLabel;html=1;align=center;verticalAlign=middle;resizable=0;points=[];fontSize=12;" vertex="1" connectable="0" parent="Cib58k6UqP0Wak7wSc-0-60">
          <mxGeometry x="-0.0721" relative="1" as="geometry">
            <mxPoint as="offset" />
          </mxGeometry>
        </mxCell>
        <mxCell id="Cib58k6UqP0Wak7wSc-0-62" style="edgeStyle=orthogonalEdgeStyle;rounded=0;orthogonalLoop=1;jettySize=auto;html=1;fontSize=12;startSize=8;endSize=8;startArrow=classic;startFill=1;dashed=1;dashPattern=1 2;" edge="1" parent="Cib58k6UqP0Wak7wSc-0-46" source="Cib58k6UqP0Wak7wSc-0-64">
          <mxGeometry relative="1" as="geometry">
            <mxPoint x="230" y="440" as="targetPoint" />
            <Array as="points">
              <mxPoint x="170" y="484" />
              <mxPoint x="170" y="440" />
              <mxPoint x="230" y="440" />
            </Array>
          </mxGeometry>
        </mxCell>
        <mxCell id="Cib58k6UqP0Wak7wSc-0-63" value="validar" style="edgeLabel;html=1;align=center;verticalAlign=middle;resizable=0;points=[];fontSize=12;" vertex="1" connectable="0" parent="Cib58k6UqP0Wak7wSc-0-62">
          <mxGeometry x="-0.1016" relative="1" as="geometry">
            <mxPoint x="-4" y="-6" as="offset" />
          </mxGeometry>
        </mxCell>
        <mxCell id="Cib58k6UqP0Wak7wSc-0-64" value="Keycloack - user" style="image;aspect=fixed;html=1;points=[];align=center;fontSize=12;image=img/lib/azure2/other/Azure_Edge_Hardware_Center.svg;" vertex="1" parent="Cib58k6UqP0Wak7wSc-0-46">
          <mxGeometry x="50" y="450" width="68" height="68" as="geometry" />
        </mxCell>
        <mxCell id="Cib58k6UqP0Wak7wSc-0-65" value="3" style="ellipse;whiteSpace=wrap;html=1;aspect=fixed;rotation=0;gradientColor=#223548;strokeColor=none;gradientDirection=east;fillColor=#5b738b;rounded=0;pointerEvents=0;fontFamily=Helvetica;fontSize=16;fontColor=#FFFFFF;spacingTop=4;spacingBottom=4;spacingLeft=4;spacingRight=4;points=[];fontStyle=1" vertex="1" parent="Cib58k6UqP0Wak7wSc-0-46">
          <mxGeometry x="140" y="40" width="30" height="30" as="geometry" />
        </mxCell>
        <mxCell id="Cib58k6UqP0Wak7wSc-0-66" style="edgeStyle=none;curved=1;rounded=0;orthogonalLoop=1;jettySize=auto;html=1;entryX=1;entryY=0.75;entryDx=0;entryDy=0;fontSize=12;startSize=8;endSize=8;dashed=1;dashPattern=1 1;" edge="1" parent="Cib58k6UqP0Wak7wSc-0-46">
          <mxGeometry relative="1" as="geometry">
            <mxPoint x="180" y="400.5" as="sourcePoint" />
            <mxPoint x="-110" y="400" as="targetPoint" />
          </mxGeometry>
        </mxCell>
        <mxCell id="Cib58k6UqP0Wak7wSc-0-67" value="respuesta&amp;nbsp;" style="edgeLabel;html=1;align=center;verticalAlign=middle;resizable=0;points=[];fontSize=12;" vertex="1" connectable="0" parent="Cib58k6UqP0Wak7wSc-0-66">
          <mxGeometry x="0.0144" y="4" relative="1" as="geometry">
            <mxPoint x="3" y="-4" as="offset" />
          </mxGeometry>
        </mxCell>
        <mxCell id="Cib58k6UqP0Wak7wSc-0-68" value="SIGED-usuario" style="whiteSpace=wrap;html=1;shape=mxgraph.basic.cloud_rect;fillColor=#fff2cc;strokeColor=#d6b656;" vertex="1" parent="1">
          <mxGeometry x="-800" width="150" height="30" as="geometry" />
        </mxCell>
        <mxCell id="Cib58k6UqP0Wak7wSc-0-69" value="SIGED-aplicativo" style="whiteSpace=wrap;html=1;shape=mxgraph.basic.cloud_rect;fillColor=#fff2cc;strokeColor=#d6b656;" vertex="1" parent="1">
          <mxGeometry x="60" width="150" height="30" as="geometry" />
        </mxCell>
        <mxCell id="Cib58k6UqP0Wak7wSc-0-70" style="edgeStyle=orthogonalEdgeStyle;rounded=0;orthogonalLoop=1;jettySize=auto;html=1;fontSize=12;startSize=8;endSize=8;dashed=1;dashPattern=1 2;startArrow=classic;startFill=1;entryX=-0.048;entryY=0.505;entryDx=0;entryDy=0;entryPerimeter=0;exitX=1.007;exitY=0.918;exitDx=0;exitDy=0;exitPerimeter=0;" edge="1" parent="1" source="Cib58k6UqP0Wak7wSc-0-38" target="Cib58k6UqP0Wak7wSc-0-64">
          <mxGeometry relative="1" as="geometry">
            <mxPoint x="-414" y="360" as="targetPoint" />
            <Array as="points">
              <mxPoint x="-510" y="458" />
              <mxPoint x="-510" y="514" />
            </Array>
            <mxPoint x="-560" y="440" as="sourcePoint" />
          </mxGeometry>
        </mxCell>
        <mxCell id="Cib58k6UqP0Wak7wSc-0-71" value="autenticar/&lt;br&gt;generar token" style="edgeLabel;html=1;align=center;verticalAlign=middle;resizable=0;points=[];fontSize=12;" vertex="1" connectable="0" parent="Cib58k6UqP0Wak7wSc-0-70">
          <mxGeometry x="0.0238" y="2" relative="1" as="geometry">
            <mxPoint y="17" as="offset" />
          </mxGeometry>
        </mxCell>
        <mxCell id="Cib58k6UqP0Wak7wSc-0-72" value="1" style="ellipse;whiteSpace=wrap;html=1;aspect=fixed;rotation=0;gradientColor=#223548;strokeColor=none;gradientDirection=east;fillColor=#5b738b;rounded=0;pointerEvents=0;fontFamily=Helvetica;fontSize=16;fontColor=#FFFFFF;spacingTop=4;spacingBottom=4;spacingLeft=4;spacingRight=4;points=[];fontStyle=1" vertex="1" parent="1">
          <mxGeometry x="-540" y="80" width="30" height="30" as="geometry" />
        </mxCell>
        <mxCell id="Cib58k6UqP0Wak7wSc-0-73" style="edgeStyle=none;curved=1;rounded=0;orthogonalLoop=1;jettySize=auto;html=1;entryX=1;entryY=0.75;entryDx=0;entryDy=0;fontSize=12;startSize=8;endSize=8;dashed=1;dashPattern=1 1;" edge="1" parent="1">
          <mxGeometry relative="1" as="geometry">
            <mxPoint x="-270" y="206" as="sourcePoint" />
            <mxPoint x="-560" y="205.5" as="targetPoint" />
          </mxGeometry>
        </mxCell>
        <mxCell id="Cib58k6UqP0Wak7wSc-0-74" value="respuesta&amp;nbsp;" style="edgeLabel;html=1;align=center;verticalAlign=middle;resizable=0;points=[];fontSize=12;" vertex="1" connectable="0" parent="Cib58k6UqP0Wak7wSc-0-73">
          <mxGeometry x="0.0144" y="4" relative="1" as="geometry">
            <mxPoint x="3" y="-4" as="offset" />
          </mxGeometry>
        </mxCell>
        <mxCell id="Cib58k6UqP0Wak7wSc-0-75" value="2" style="ellipse;whiteSpace=wrap;html=1;aspect=fixed;rotation=0;gradientColor=#223548;strokeColor=none;gradientDirection=east;fillColor=#5b738b;rounded=0;pointerEvents=0;fontFamily=Helvetica;fontSize=16;fontColor=#FFFFFF;spacingTop=4;spacingBottom=4;spacingLeft=4;spacingRight=4;points=[];fontStyle=1" vertex="1" parent="1">
          <mxGeometry x="-470" y="155" width="30" height="30" as="geometry" />
        </mxCell>
        <mxCell id="Cib58k6UqP0Wak7wSc-0-76" value="4" style="ellipse;whiteSpace=wrap;html=1;aspect=fixed;rotation=0;gradientColor=#223548;strokeColor=none;gradientDirection=east;fillColor=#5b738b;rounded=0;pointerEvents=0;fontFamily=Helvetica;fontSize=16;fontColor=#FFFFFF;spacingTop=4;spacingBottom=4;spacingLeft=4;spacingRight=4;points=[];fontStyle=1" vertex="1" parent="1">
          <mxGeometry x="-470" y="210" width="30" height="30" as="geometry" />
        </mxCell>
        <mxCell id="Cib58k6UqP0Wak7wSc-0-77" value="1" style="ellipse;whiteSpace=wrap;html=1;aspect=fixed;rotation=0;gradientColor=#223548;strokeColor=none;gradientDirection=east;fillColor=#5b738b;rounded=0;pointerEvents=0;fontFamily=Helvetica;fontSize=16;fontColor=#FFFFFF;spacingTop=4;spacingBottom=4;spacingLeft=4;spacingRight=4;points=[];fontStyle=1" vertex="1" parent="1">
          <mxGeometry x="310" y="465" width="30" height="30" as="geometry" />
        </mxCell>
        <mxCell id="Cib58k6UqP0Wak7wSc-0-78" value="Frontend - PIFO" style="rounded=1;whiteSpace=wrap;html=1;" vertex="1" parent="1">
          <mxGeometry x="1040" y="428" width="100" height="42" as="geometry" />
        </mxCell>
        <mxCell id="Cib58k6UqP0Wak7wSc-0-79" style="edgeStyle=orthogonalEdgeStyle;rounded=0;orthogonalLoop=1;jettySize=auto;html=1;fontSize=12;startSize=8;endSize=8;dashed=1;dashPattern=1 2;entryX=0;entryY=0.625;entryDx=0;entryDy=0;entryPerimeter=0;" edge="1" parent="1" source="Cib58k6UqP0Wak7wSc-0-81" target="Cib58k6UqP0Wak7wSc-0-93">
          <mxGeometry relative="1" as="geometry">
            <mxPoint x="1430" y="224" as="targetPoint" />
            <Array as="points">
              <mxPoint x="1400" y="224" />
              <mxPoint x="1400" y="260" />
            </Array>
          </mxGeometry>
        </mxCell>
        <mxCell id="Cib58k6UqP0Wak7wSc-0-80" value="HTTP" style="edgeLabel;html=1;align=center;verticalAlign=middle;resizable=0;points=[];fontSize=12;" vertex="1" connectable="0" parent="Cib58k6UqP0Wak7wSc-0-79">
          <mxGeometry x="-0.0721" relative="1" as="geometry">
            <mxPoint as="offset" />
          </mxGeometry>
        </mxCell>
        <mxCell id="Cib58k6UqP0Wak7wSc-0-81" value="Frontend - SYM" style="rounded=1;whiteSpace=wrap;html=1;" vertex="1" parent="1">
          <mxGeometry x="1040" y="203" width="100" height="42" as="geometry" />
        </mxCell>
        <mxCell id="Cib58k6UqP0Wak7wSc-0-82" value="Usuarios" style="image;aspect=fixed;html=1;points=[];align=center;fontSize=12;image=img/lib/azure2/intune/Devices.svg;" vertex="1" parent="1">
          <mxGeometry x="920" y="419" width="68" height="60" as="geometry" />
        </mxCell>
        <mxCell id="Cib58k6UqP0Wak7wSc-0-83" style="edgeStyle=none;curved=1;rounded=0;orthogonalLoop=1;jettySize=auto;html=1;fontSize=12;startSize=8;endSize=8;dashed=1;dashPattern=1 2;entryX=0;entryY=0.5;entryDx=0;entryDy=0;" edge="1" parent="1">
          <mxGeometry relative="1" as="geometry">
            <mxPoint x="978" y="448.9988120271348" as="sourcePoint" />
            <mxPoint x="1040" y="449.20000000000005" as="targetPoint" />
          </mxGeometry>
        </mxCell>
        <mxCell id="Cib58k6UqP0Wak7wSc-0-84" style="edgeStyle=orthogonalEdgeStyle;rounded=0;orthogonalLoop=1;jettySize=auto;html=1;entryX=0;entryY=0.5;entryDx=0;entryDy=0;fontSize=12;startSize=8;endSize=8;dashed=1;dashPattern=1 1;" edge="1" parent="1" source="Cib58k6UqP0Wak7wSc-0-85" target="Cib58k6UqP0Wak7wSc-0-81">
          <mxGeometry relative="1" as="geometry" />
        </mxCell>
        <mxCell id="Cib58k6UqP0Wak7wSc-0-85" value="Usuarios" style="image;aspect=fixed;html=1;points=[];align=center;fontSize=12;image=img/lib/azure2/intune/Devices.svg;" vertex="1" parent="1">
          <mxGeometry x="920" y="194" width="68" height="60" as="geometry" />
        </mxCell>
        <mxCell id="Cib58k6UqP0Wak7wSc-0-86" style="edgeStyle=orthogonalEdgeStyle;rounded=0;orthogonalLoop=1;jettySize=auto;html=1;fontSize=12;startSize=8;endSize=8;dashed=1;dashPattern=1 1;exitX=1;exitY=0.5;exitDx=0;exitDy=0;entryX=0;entryY=0.5;entryDx=0;entryDy=0;" edge="1" parent="1" source="Cib58k6UqP0Wak7wSc-0-78" target="Cib58k6UqP0Wak7wSc-0-97">
          <mxGeometry relative="1" as="geometry">
            <mxPoint x="1430" y="445" as="targetPoint" />
            <mxPoint x="1140" y="409" as="sourcePoint" />
            <Array as="points">
              <mxPoint x="1140" y="445" />
              <mxPoint x="1390" y="445" />
              <mxPoint x="1390" y="495" />
            </Array>
          </mxGeometry>
        </mxCell>
        <mxCell id="Cib58k6UqP0Wak7wSc-0-87" value="HTTP" style="edgeLabel;html=1;align=center;verticalAlign=middle;resizable=0;points=[];fontSize=12;" vertex="1" connectable="0" parent="Cib58k6UqP0Wak7wSc-0-86">
          <mxGeometry x="-0.0182" y="-1" relative="1" as="geometry">
            <mxPoint as="offset" />
          </mxGeometry>
        </mxCell>
        <mxCell id="Cib58k6UqP0Wak7wSc-0-88" value="Orquestador" style="swimlane;" vertex="1" parent="1">
          <mxGeometry x="1250" y="65" width="420" height="540" as="geometry" />
        </mxCell>
        <mxCell id="Cib58k6UqP0Wak7wSc-0-89" style="edgeStyle=none;curved=1;rounded=0;orthogonalLoop=1;jettySize=auto;html=1;fontSize=12;startSize=8;endSize=8;startArrow=classic;startFill=1;dashed=1;dashPattern=1 2;entryX=0.35;entryY=0;entryDx=0;entryDy=0;entryPerimeter=0;" edge="1" parent="Cib58k6UqP0Wak7wSc-0-88" target="Cib58k6UqP0Wak7wSc-0-94">
          <mxGeometry relative="1" as="geometry">
            <mxPoint x="250" y="230" as="sourcePoint" />
            <mxPoint x="250" y="280" as="targetPoint" />
          </mxGeometry>
        </mxCell>
        <mxCell id="Cib58k6UqP0Wak7wSc-0-90" value="Backend" style="swimlane;" vertex="1" parent="Cib58k6UqP0Wak7wSc-0-88">
          <mxGeometry x="180" y="50" width="200" height="180" as="geometry">
            <mxRectangle x="585" y="260" width="90" height="30" as="alternateBounds" />
          </mxGeometry>
        </mxCell>
        <mxCell id="Cib58k6UqP0Wak7wSc-0-91" value="Servicio de Autenticación" style="swimlane;" vertex="1" parent="Cib58k6UqP0Wak7wSc-0-90">
          <mxGeometry x="15" y="40" width="170" height="130" as="geometry">
            <mxRectangle x="15" y="85" width="170" height="30" as="alternateBounds" />
          </mxGeometry>
        </mxCell>
        <mxCell id="Cib58k6UqP0Wak7wSc-0-92" value="&lt;span style=&quot;font-size: 10px;&quot;&gt;Componente: Autenticar token y usuario (user)&lt;/span&gt;" style="rounded=1;whiteSpace=wrap;html=1;" vertex="1" parent="Cib58k6UqP0Wak7wSc-0-91">
          <mxGeometry x="25" y="30.5" width="120" height="39.5" as="geometry" />
        </mxCell>
        <mxCell id="Cib58k6UqP0Wak7wSc-0-93" value="&lt;span style=&quot;font-size: 10px;&quot;&gt;Componente: Autenticar token y usuario (system)&lt;/span&gt;" style="rounded=1;whiteSpace=wrap;html=1;" vertex="1" parent="Cib58k6UqP0Wak7wSc-0-91">
          <mxGeometry x="25" y="80" width="120" height="40" as="geometry" />
        </mxCell>
        <mxCell id="Cib58k6UqP0Wak7wSc-0-94" value="Backend" style="swimlane;" vertex="1" parent="Cib58k6UqP0Wak7wSc-0-88">
          <mxGeometry x="180" y="290" width="200" height="180" as="geometry">
            <mxRectangle x="585" y="260" width="90" height="30" as="alternateBounds" />
          </mxGeometry>
        </mxCell>
        <mxCell id="Cib58k6UqP0Wak7wSc-0-95" value="Servicio de Autenticación" style="swimlane;" vertex="1" parent="Cib58k6UqP0Wak7wSc-0-94">
          <mxGeometry x="15" y="40" width="170" height="130" as="geometry">
            <mxRectangle x="15" y="85" width="170" height="30" as="alternateBounds" />
          </mxGeometry>
        </mxCell>
        <mxCell id="Cib58k6UqP0Wak7wSc-0-96" value="&lt;font style=&quot;font-size: 10px;&quot;&gt;Componente: Autenticar token y usuario (system)&lt;/font&gt;" style="rounded=1;whiteSpace=wrap;html=1;" vertex="1" parent="Cib58k6UqP0Wak7wSc-0-95">
          <mxGeometry x="25" y="31" width="120" height="40" as="geometry" />
        </mxCell>
        <mxCell id="Cib58k6UqP0Wak7wSc-0-97" value="&lt;font style=&quot;font-size: 10px;&quot;&gt;Componente: Autenticar token y usuario (user)&lt;/font&gt;" style="rounded=1;whiteSpace=wrap;html=1;" vertex="1" parent="Cib58k6UqP0Wak7wSc-0-95">
          <mxGeometry x="25" y="80" width="120" height="39.5" as="geometry" />
        </mxCell>
        <mxCell id="Cib58k6UqP0Wak7wSc-0-98" style="edgeStyle=none;curved=1;rounded=0;orthogonalLoop=1;jettySize=auto;html=1;fontSize=12;startSize=8;endSize=8;startArrow=classic;startFill=1;dashed=1;dashPattern=1 2;" edge="1" parent="Cib58k6UqP0Wak7wSc-0-88">
          <mxGeometry relative="1" as="geometry">
            <mxPoint x="300" y="230" as="sourcePoint" />
            <mxPoint x="300" y="290" as="targetPoint" />
          </mxGeometry>
        </mxCell>
        <mxCell id="Cib58k6UqP0Wak7wSc-0-99" value="Keycloack - system" style="image;aspect=fixed;html=1;points=[];align=center;fontSize=12;image=img/lib/azure2/other/Azure_Edge_Hardware_Center.svg;" vertex="1" parent="Cib58k6UqP0Wak7wSc-0-88">
          <mxGeometry x="70" y="205" width="68" height="68" as="geometry" />
        </mxCell>
        <mxCell id="Cib58k6UqP0Wak7wSc-0-100" style="edgeStyle=orthogonalEdgeStyle;rounded=0;orthogonalLoop=1;jettySize=auto;html=1;startArrow=classic;startFill=1;" edge="1" parent="Cib58k6UqP0Wak7wSc-0-88" source="Cib58k6UqP0Wak7wSc-0-96">
          <mxGeometry relative="1" as="geometry">
            <mxPoint x="120" y="295" as="targetPoint" />
            <Array as="points">
              <mxPoint x="200" y="381" />
              <mxPoint x="200" y="365" />
              <mxPoint x="120" y="365" />
            </Array>
          </mxGeometry>
        </mxCell>
        <mxCell id="Cib58k6UqP0Wak7wSc-0-101" value="autenticar/ &lt;br&gt;generar token" style="edgeLabel;html=1;align=center;verticalAlign=middle;resizable=0;points=[];" vertex="1" connectable="0" parent="Cib58k6UqP0Wak7wSc-0-100">
          <mxGeometry x="0.5" y="2" relative="1" as="geometry">
            <mxPoint as="offset" />
          </mxGeometry>
        </mxCell>
        <mxCell id="Cib58k6UqP0Wak7wSc-0-102" value="Cliente SIN token" style="whiteSpace=wrap;html=1;shape=mxgraph.basic.cloud_rect;fillColor=#fff2cc;strokeColor=#d6b656;" vertex="1" parent="1">
          <mxGeometry x="890" width="150" height="30" as="geometry" />
        </mxCell>
      </root>
    </mxGraphModel>
  </diagram>
</mxfile>
